{
    "asset": {
        "version": "2.0",
        "generator": "Open Asset Import Library (assimp v5.0.5eb040c7)"
    },
    "accessors": [
        {
            "bufferView": 0,
            "byteOffset": 0,
            "componentType": 5126,
            "count": 1880,
            "type": "VEC3",
            "max": [
                333.9920654296875,
                447.6387939453125,
                564.5
            ],
            "min": [
                -246.15774536132813,
                -0.02542191743850708,
                -564.5
            ]
        },
        {
            "bufferView": 1,
            "byteOffset": 0,
            "componentType": 5126,
            "count": 1880,
            "type": "VEC3",
            "max": [
                1.0,
                1.0,
                0.0
            ],
            "min": [
                -0.0006722686230204999,
                0.0,
                0.0
            ]
        },
        {
            "bufferView": 2,
            "byteOffset": 0,
            "componentType": 5126,
            "count": 1880,
            "type": "VEC2",
            "max": [
                1.0,
                1.0
            ],
            "min": [
                0.0,
                0.0
            ]
        },
        {
            "bufferView": 3,
            "byteOffset": 0,
            "componentType": 5125,
            "count": 10764,
            "type": "SCALAR",
            "max": [
                1879
            ],
            "min": [
                0
            ]
        },
        {
            "bufferView": 4,
            "byteOffset": 0,
            "componentType": 5126,
            "count": 91,
            "type": "VEC3",
            "max": [
                94.79561614990235,
                181.51597595214845,
                94.79561614990235
            ],
            "min": [
                -94.79561614990235,
                6.226221561431885,
                -94.79561614990235
            ]
        },
        {
            "bufferView": 5,
            "byteOffset": 0,
            "componentType": 5126,
            "count": 91,
            "type": "VEC2",
            "max": [
                1.0,
                1.0
            ],
            "min": [
                0.0,
                0.0
            ]
        },
        {
            "bufferView": 6,
            "byteOffset": 0,
            "componentType": 5125,
            "count": 384,
            "type": "SCALAR",
            "max": [
                90
            ],
            "min": [
                0
            ]
        }
    ],
    "buffers": [
        {
            "byteLength": 106572,
            "uri": "result.bin"
        }
    ],
    "bufferViews": [
        {
            "buffer": 0,
            "byteOffset": 0,
            "byteLength": 22560,
            "target": 34962
        },
        {
            "buffer": 0,
            "byteOffset": 22560,
            "byteLength": 22560,
            "target": 34962
        },
        {
            "buffer": 0,
            "byteOffset": 45120,
            "byteLength": 15040,
            "target": 34962
        },
        {
            "buffer": 0,
            "byteOffset": 60160,
            "byteLength": 43056,
            "target": 34963
        },
        {
            "buffer": 0,
            "byteOffset": 103216,
            "byteLength": 1092,
            "target": 34962
        },
        {
            "buffer": 0,
            "byteOffset": 104308,
            "byteLength": 728,
            "target": 34962
        },
        {
            "buffer": 0,
            "byteOffset": 105036,
            "byteLength": 1536,
            "target": 34963
        }
    ],
    "materials": [
        {
            "name": "DefaultMaterial",
            "pbrMetallicRoughness": {
                "baseColorFactor": [
                    0.6000000238418579,
                    0.6000000238418579,
                    0.6000000238418579,
                    1.0
                ],
                "metallicFactor": 0.0
            }
        },
        {
            "name": "Mat.2",
            "pbrMetallicRoughness": {
                "baseColorFactor": [
                    0.6000000238418579,
                    0.6000000238418579,
                    0.6000000238418579,
                    1.0
                ],
                "metallicFactor": 0.0
            }
        },
        {
            "name": "Mat",
            "pbrMetallicRoughness": {
                "baseColorFactor": [
                    0.6000000238418579,
                    0.6000000238418579,
                    0.6000000238418579,
                    1.0
                ],
                "metallicFactor": 0.0
            }
        }
    ],
    "meshes": [
        {
            "name": "background",
            "primitives": [
                {
                    "mode": 4,
                    "material": 1,
                    "indices": 3,
                    "attributes": {
                        "POSITION": 0,
                        "NORMAL": 1,
                        "TEXCOORD_0": 2
                    }
                }
            ]
        },
        {
            "name": "Diamond",
            "primitives": [
                {
                    "mode": 4,
                    "material": 2,
                    "indices": 6,
                    "attributes": {
                        "POSITION": 4,
                        "TEXCOORD_0": 5
                    }
                }
            ]
        }
    ],
    "nodes": [
        {
            "name": "input.obj",
            "children": [
                1,
                2
            ]
        },
        {
            "name": "background",
            "mesh": 0
        },
        {
            "name": "Diamond",
            "mesh": 1
        }
    ],
    "scenes": [
        {
            "nodes": [
                0
            ]
        }
    ],
    "scene": 0
}